<?xml version="1.0" encoding="UTF-8" ?><svg width="259" height="52" viewBox="0 0 259 52" fill="none" xmlns="http://www.w3.org/2000/svg">
<path d="M24.2965 9.55737C24.7949 9.55737 25.2786 9.57924 25.7623 9.61589C27.3308 9.74781 28.8405 10.0924 30.2551 10.6054C33.8244 11.91 36.8514 14.3361 38.8963 17.4657C38.0461 10.9573 34.0884 5.42369 28.5548 2.42603C25.7111 0.879553 22.4495 0 18.9828 0C16.0584 0 11.5142 0.615564 9.00759 1.73694C5.25501 3.09285 2.79977 5.29897 0 7.79825L11.6022 15.047C14.7757 11.6609 19.2833 9.55737 24.2965 9.55737Z" fill="#F47920"/>
<path d="M36.5123 25.9003H36.505C36.1532 25.9296 35.8014 25.9517 35.4569 25.9663H35.3691C33.9105 26.003 32.4372 25.8563 31.008 25.5265C29.1537 25.1014 27.3507 24.3758 25.687 23.3277C24.5876 22.6461 23.5542 21.8253 22.6014 20.8725C22.3302 20.6087 22.0738 20.3301 21.832 20.0516C20.0509 18.0287 18.8269 15.7053 18.1453 13.2573C16.1664 14.1955 14.3926 15.5 12.9121 17.0685C11.2044 18.8788 9.88516 21.0558 9.07895 23.4671C8.9177 23.9582 8.77105 24.4638 8.64646 24.9841L8.29467 26.963L6.89484 34.8933L6.56506 36.7403L7.78166 35.6996L9.82655 33.9405L9.49676 29.5137C9.42347 29.0667 9.38672 28.6122 9.38672 28.1431V28.0991L21.2456 28.363C19.318 29.2425 15.9172 32.2034 14.5906 33.596L14.5759 33.618C14.2754 33.9332 13.9896 34.2557 13.7111 34.5929L12.6996 38.6533L12.5824 39.1223H12.5897L12.3039 40.2657L12.2526 40.4783L9.38672 51.9998L20.1974 46.217L20.3001 45.6819L20.7106 43.5272C20.7545 43.322 20.7985 43.1461 20.8424 42.9922C20.9597 42.5524 21.0184 42.3399 21.0917 42.142C21.209 41.7756 21.3409 41.4163 21.4655 41.0938C23.9355 34.6661 27.0356 33.2002 26.8304 33.2002C26.9916 33.0683 27.1675 32.9437 27.3434 32.8264C28.8459 31.7783 30.8102 31.0235 32.9357 30.7303C33.2582 30.6864 33.6246 30.6496 34.0057 30.6423L34.1085 30.635L36.0653 28.4582L38.6526 25.5705L38.5132 25.5998C37.8462 25.7391 37.1793 25.8417 36.5123 25.9003Z" fill="#F47920"/>
<path d="M59.9988 34.933C59.5956 36.0104 58.9507 36.8387 57.9979 37.4031C57.0671 37.9601 55.9969 38.2312 54.7949 38.2312C53.5563 38.2312 52.5888 37.9821 51.8852 37.4471C51.1816 36.9194 50.8152 36.2012 50.8152 35.2923C50.8152 33.4014 52.259 32.4485 55.154 32.4485H59.9988V34.933ZM64.0078 20.6338C61.9923 18.8382 59.0974 17.9292 55.3301 17.9292C53.3879 17.9292 51.4749 18.1858 49.6133 18.6988C47.7663 19.2192 46.1612 19.9448 44.8419 20.8756L47.3705 25.8008C48.25 25.1119 49.32 24.5622 50.5733 24.1444C51.8192 23.7486 53.0873 23.5435 54.3846 23.5435C56.2609 23.5435 57.6534 23.9539 58.5769 24.7821C59.5297 25.6103 59.9988 26.7977 59.9988 28.3295H54.3846C50.8373 28.3295 48.1987 28.9891 46.491 30.2717C44.7833 31.569 43.9404 33.3647 43.9404 35.6221C43.9404 37.0293 44.2996 38.3046 45.0325 39.4039C45.7507 40.5253 46.7988 41.4049 48.1621 42.0425C49.54 42.6582 51.1597 42.988 53.0433 42.988C56.6566 42.988 59.1193 41.8519 60.4386 39.5945V42.6287H67.0422V28.7398C67.0422 25.1265 66.038 22.4222 64.0078 20.6338Z" fill="white"/>
<path d="M122.167 28.1327C122.387 25.6481 123.303 23.6693 124.952 22.1228C126.572 20.591 128.58 19.8286 130.984 19.8286C133.425 19.8286 135.448 20.591 137.097 22.1228C138.724 23.6693 139.647 25.6481 139.86 28.1327H122.167ZM143.099 29.5913C143.099 27.136 142.572 24.9445 141.524 23.0389C140.475 21.1187 139.046 19.6161 137.207 18.5534C135.374 17.4613 133.307 16.9189 130.984 16.9189C128.675 16.9189 126.601 17.4613 124.754 18.5534C122.907 19.6161 121.441 21.1187 120.393 23.0536C119.331 24.9885 118.803 27.1726 118.803 29.5913C118.803 32.0319 119.345 34.2233 120.467 36.1582C121.566 38.0638 123.105 39.5884 125.077 40.6732C127.063 41.7799 129.328 42.3223 131.893 42.3223C133.879 42.3223 135.704 41.9776 137.368 41.274C139.032 40.5851 140.424 39.5737 141.524 38.2325L139.633 36.041C138.687 37.1331 137.551 37.9465 136.261 38.5036C134.964 39.0533 133.535 39.3392 131.981 39.3392C129.24 39.3392 126.96 38.5256 125.15 36.9352C123.362 35.3374 122.372 33.2485 122.167 30.6393H143.041L143.099 29.5913Z" fill="white"/>
<path d="M162.203 31.4016C161.353 30.4781 160.327 29.8478 159.132 29.4667C157.916 29.0856 156.332 28.7044 154.346 28.3306C152.712 28.0448 151.451 27.7515 150.55 27.495C149.626 27.2238 148.849 26.8134 148.234 26.2344C147.618 25.6481 147.31 24.8932 147.31 23.9551C147.31 22.7238 147.853 21.7343 148.959 20.972C150.044 20.2171 151.664 19.8286 153.819 19.8286C156.655 19.8286 159.118 20.5324 161.17 21.9689L162.643 19.2569C161.588 18.568 160.268 18.0111 158.663 17.5787C157.036 17.1389 155.424 16.9189 153.819 16.9189C150.704 16.9189 148.285 17.5932 146.548 18.9272C144.811 20.2464 143.953 21.9688 143.953 24.043C143.953 25.7214 144.386 27.0407 145.251 27.9862C146.116 28.9463 147.164 29.606 148.395 30.0091C149.641 30.4048 151.268 30.7858 153.298 31.167C154.815 31.4235 156.025 31.6727 156.941 31.9439C157.872 32.2151 158.627 32.611 159.22 33.1313C159.821 33.659 160.122 34.3846 160.122 35.2861C160.122 36.5907 159.579 37.602 158.487 38.3057C157.395 39.0093 155.717 39.3685 153.437 39.3685C151.722 39.3685 150.073 39.1193 148.505 38.5916C146.914 38.0639 145.617 37.4043 144.569 36.5687L143.045 39.2291C144.093 40.116 145.544 40.8562 147.383 41.4353C149.23 42.0289 151.18 42.3223 153.203 42.3223C156.421 42.3223 158.949 41.6625 160.767 40.4019C162.584 39.1193 163.493 37.3895 163.493 35.1981C163.493 33.593 163.076 32.325 162.203 31.4016Z" fill="white"/>
<path d="M187.375 34.6777C186.554 36.1729 185.454 37.3162 184.025 38.1224C182.596 38.9213 181.027 39.3392 179.276 39.3392C177.495 39.3392 175.904 38.9213 174.519 38.1224C173.112 37.3162 171.991 36.1729 171.192 34.6777C170.378 33.1899 169.982 31.4969 169.982 29.5913C169.982 27.7003 170.378 26.022 171.192 24.5488C171.991 23.0683 173.112 21.9321 174.519 21.1039C175.904 20.283 177.495 19.8727 179.276 19.8727C181.027 19.8727 182.596 20.283 184.025 21.1039C185.454 21.9321 186.554 23.0683 187.375 24.5488C188.181 26.022 188.577 27.7003 188.577 29.5913C188.577 31.4969 188.181 33.1899 187.375 34.6777ZM190.328 22.9949C189.266 21.0747 187.763 19.5796 185.872 18.5095C183.974 17.4614 181.856 16.9189 179.518 16.9189C177.429 16.9189 175.545 17.3734 173.882 18.2603C172.24 19.1471 170.906 20.415 169.887 22.0568V17.1242H166.655V51.2859H170.034V37.3895C171.06 38.9946 172.408 40.2259 174.028 41.0541C175.677 41.9043 177.495 42.3223 179.518 42.3223C181.892 42.3223 184.025 41.7944 185.901 40.7317C187.785 39.6689 189.266 38.1812 190.328 36.2463C191.42 34.3113 191.948 32.1052 191.948 29.5913C191.948 27.136 191.42 24.9298 190.328 22.9949Z" fill="white"/>
<path d="M197.041 28.1327C197.275 25.6481 198.192 23.6693 199.826 22.1228C201.446 20.591 203.476 19.8286 205.873 19.8286C208.299 19.8286 210.343 20.591 211.971 22.1228C213.598 23.6693 214.521 25.6481 214.734 28.1327H197.041ZM217.973 29.5913C217.973 27.136 217.446 24.9445 216.397 23.0389C215.364 21.1187 213.92 19.6161 212.081 18.5534C210.248 17.4613 208.167 16.9189 205.873 16.9189C203.564 16.9189 201.482 17.4613 199.621 18.5534C197.774 19.6161 196.315 21.1187 195.267 23.0536C194.205 24.9885 193.677 27.1726 193.677 29.5913C193.677 32.0319 194.234 34.2233 195.341 36.1582C196.44 38.0638 197.979 39.5884 199.965 40.6732C201.937 41.7799 204.216 42.3223 206.76 42.3223C208.768 42.3223 210.593 41.9776 212.256 41.274C213.92 40.5851 215.291 39.5737 216.397 38.2325L214.499 36.041C213.561 37.1331 212.44 37.9465 211.135 38.5036C209.83 39.0533 208.409 39.3392 206.877 39.3392C204.106 39.3392 201.827 38.5256 200.039 36.9352C198.236 35.3374 197.239 33.2485 197.041 30.6393H217.915L217.973 29.5913Z" fill="white"/>
<path d="M239.446 35.6599L241.96 37.375C240.971 38.9874 239.629 40.2186 237.929 41.0468C236.214 41.897 234.294 42.3149 232.183 42.3149C229.706 42.3149 227.499 41.7724 225.565 40.7023C223.615 39.6176 222.098 38.1152 220.976 36.1656C219.87 34.216 219.313 32.0246 219.313 29.5839C219.313 27.1653 219.87 24.9739 220.976 23.0463C222.098 21.1114 223.615 19.6088 225.565 18.5387C227.499 17.4613 229.706 16.9189 232.183 16.9189C234.33 16.9189 236.251 17.3513 237.951 18.1796C239.651 19.0151 240.971 20.2391 241.96 21.8515L239.446 23.5666C238.618 22.3353 237.57 21.4191 236.302 20.7815C235.041 20.1658 233.663 19.8653 232.183 19.8653C230.373 19.8653 228.746 20.261 227.324 21.0746C225.872 21.8881 224.751 23.0243 223.937 24.5048C223.146 26.0073 222.75 27.6856 222.75 29.5839C222.75 31.5188 223.146 33.2192 223.937 34.6997C224.751 36.1656 225.872 37.3015 227.324 38.1151C228.746 38.914 230.373 39.3319 232.183 39.3319C233.663 39.3319 235.041 39.024 236.302 38.423C237.57 37.8074 238.618 36.9059 239.446 35.6599Z" fill="white"/>
<path d="M257.21 38.2232C256.741 38.6409 256.176 38.9488 255.531 39.1613C254.879 39.4032 254.212 39.5058 253.508 39.5058C252.109 39.5058 251.046 39.1028 250.305 38.3332C249.565 37.571 249.184 36.4349 249.184 34.947V20.0541H256.777V17.2029H249.184V11.7427H245.827V35.1303C245.827 37.439 246.458 39.2347 247.718 40.4953C248.986 41.7706 250.789 42.401 253.127 42.401C254.139 42.401 255.114 42.2543 256.052 41.9465C256.975 41.6387 257.767 41.2062 258.404 40.6492L257.21 38.2232Z" fill="white"/>
<path d="M59.9988 34.933C59.5956 36.0104 58.9507 36.8387 57.9979 37.4031C57.0671 37.9601 55.9969 38.2312 54.7949 38.2312C53.5563 38.2312 52.5888 37.9821 51.8852 37.4471C51.1816 36.9194 50.8152 36.2012 50.8152 35.2923C50.8152 33.4014 52.259 32.4485 55.154 32.4485H59.9988V34.933ZM64.0078 20.6338C61.9923 18.8382 59.0974 17.9292 55.3301 17.9292C53.3879 17.9292 51.4749 18.1858 49.6133 18.6988C47.7663 19.2192 46.1612 19.9448 44.8419 20.8756L47.3705 25.8008C48.25 25.1119 49.32 24.5622 50.5733 24.1444C51.8192 23.7486 53.0873 23.5435 54.3846 23.5435C56.2609 23.5435 57.6534 23.9539 58.5769 24.7821C59.5297 25.6103 59.9988 26.7977 59.9988 28.3295H54.3846C50.8373 28.3295 48.1987 28.9891 46.491 30.2717C44.7833 31.569 43.9404 33.3647 43.9404 35.6221C43.9404 37.0293 44.2996 38.3046 45.0325 39.4039C45.7507 40.5253 46.7988 41.4049 48.1621 42.0425C49.54 42.6582 51.1597 42.988 53.0433 42.988C56.6566 42.988 59.1193 41.8519 60.4386 39.5945V42.6287H67.0422V28.7398C67.0422 25.1265 66.038 22.4222 64.0078 20.6338Z" fill="white"/>
<path d="M103.626 28.6591H94.7795V11.9997H103.626C106.917 11.9997 109.431 12.718 111.16 14.1692C112.897 15.5984 113.762 17.6505 113.762 20.3477C113.762 22.9862 112.897 25.0165 111.16 26.4824C109.431 27.9262 106.917 28.6591 103.626 28.6591ZM86.3729 35.3506C85.2002 36.5673 83.7196 37.1903 81.946 37.1903C80.1356 37.1903 78.6479 36.5673 77.4752 35.3506C76.2806 34.1413 75.6941 32.5143 75.6941 30.4548C75.6941 28.4099 76.2806 26.7755 77.4752 25.5515C78.6479 24.3275 80.1356 23.7119 81.946 23.7119C83.7196 23.7119 85.2002 24.3275 86.3729 25.5515C87.5455 26.7755 88.1245 28.4099 88.1245 30.4548C88.1245 32.5143 87.5455 34.1413 86.3729 35.3506ZM109.702 30.7992C112.121 30.0076 113.997 28.7177 115.316 26.9293C116.621 25.1337 117.288 22.9569 117.288 20.3477C117.288 16.8077 116.078 14.0226 113.674 11.9997C111.263 9.97687 107.943 8.96533 103.714 8.96533L87.9926 9.07538V20.868C86.2482 18.9038 83.8223 17.9217 80.722 17.9217C78.428 17.9217 76.3465 18.4421 74.5068 19.4755C72.6452 20.487 71.2014 21.9455 70.1313 23.8511C69.0759 25.7567 68.5627 27.9481 68.5627 30.4548C68.5627 32.954 69.0759 35.1601 70.1313 37.0511C71.2014 38.9494 72.6452 40.4152 74.5068 41.434C76.3465 42.4674 78.428 42.9805 80.722 42.9805C84.0275 42.9805 86.5634 41.9324 88.315 39.8142V42.6212H95.0508V31.642H103.714C104.637 31.642 105.517 31.5981 106.374 31.5028L113.96 42.1816H117.815L109.702 30.7992Z" fill="white"/>
<path d="M122.167 28.1327C122.387 25.6481 123.303 23.6693 124.952 22.1228C126.572 20.591 128.58 19.8286 130.984 19.8286C133.425 19.8286 135.448 20.591 137.097 22.1228C138.724 23.6693 139.647 25.6481 139.86 28.1327H122.167ZM143.099 29.5913C143.099 27.136 142.572 24.9445 141.524 23.0389C140.475 21.1187 139.046 19.6161 137.207 18.5534C135.374 17.4613 133.307 16.9189 130.984 16.9189C128.675 16.9189 126.601 17.4613 124.754 18.5534C122.907 19.6161 121.441 21.1187 120.393 23.0536C119.331 24.9885 118.803 27.1726 118.803 29.5913C118.803 32.0319 119.345 34.2233 120.467 36.1582C121.566 38.0638 123.105 39.5884 125.077 40.6732C127.063 41.7799 129.328 42.3223 131.893 42.3223C133.879 42.3223 135.704 41.9776 137.368 41.274C139.032 40.5851 140.424 39.5737 141.524 38.2325L139.633 36.041C138.687 37.1331 137.551 37.9465 136.261 38.5036C134.964 39.0533 133.535 39.3392 131.981 39.3392C129.24 39.3392 126.96 38.5256 125.15 36.9352C123.362 35.3374 122.372 33.2485 122.167 30.6393H143.041L143.099 29.5913Z" fill="white"/>
<path d="M162.203 31.3942C163.076 32.3177 163.486 33.5783 163.486 35.1907C163.486 37.3748 162.584 39.1119 160.759 40.3946C158.949 41.6625 156.421 42.3149 153.203 42.3149C151.18 42.3149 149.23 42.0216 147.383 41.4279C145.536 40.8489 144.093 40.1086 143.045 39.2218L144.562 36.5614C145.61 37.3969 146.914 38.0639 148.505 38.5916C150.073 39.112 151.722 39.3685 153.437 39.3685C155.717 39.3685 157.395 39.0019 158.48 38.2983C159.587 37.5947 160.129 36.5834 160.129 35.2788C160.129 34.3773 159.821 33.6517 159.22 33.1313C158.627 32.6036 157.864 32.2078 156.948 31.9366C156.025 31.6654 154.815 31.4088 153.291 31.1596C151.268 30.7785 149.641 30.3975 148.395 30.0017C147.164 29.606 146.116 28.939 145.251 27.9789C144.386 27.0407 143.946 25.7213 143.946 24.0356C143.946 21.9614 144.818 20.2391 146.555 18.9198C148.285 17.5859 150.711 16.9189 153.819 16.9189C155.424 16.9189 157.036 17.1316 158.663 17.564C160.276 18.0038 161.588 18.5606 162.643 19.2496L161.177 21.9616C159.118 20.5324 156.655 19.8286 153.819 19.8286C151.671 19.8286 150.044 20.2025 148.959 20.9647C147.853 21.7269 147.31 22.7164 147.31 23.9478C147.31 24.8859 147.618 25.648 148.234 26.2271C148.849 26.8061 149.626 27.2165 150.55 27.4877C151.451 27.7442 152.719 28.0301 154.346 28.3233C156.332 28.7044 157.923 29.0783 159.132 29.4594C160.327 29.8405 161.353 30.4707 162.203 31.3942Z" fill="white"/>
<path d="M187.375 34.6777C186.554 36.1729 185.454 37.3162 184.025 38.1224C182.596 38.9213 181.027 39.3392 179.276 39.3392C177.495 39.3392 175.904 38.9213 174.519 38.1224C173.112 37.3162 171.991 36.1729 171.192 34.6777C170.378 33.1899 169.982 31.4969 169.982 29.5913C169.982 27.7003 170.378 26.022 171.192 24.5488C171.991 23.0683 173.112 21.9321 174.519 21.1039C175.904 20.283 177.495 19.8727 179.276 19.8727C181.027 19.8727 182.596 20.283 184.025 21.1039C185.454 21.9321 186.554 23.0683 187.375 24.5488C188.181 26.022 188.577 27.7003 188.577 29.5913C188.577 31.4969 188.181 33.1899 187.375 34.6777ZM190.328 22.9949C189.266 21.0747 187.763 19.5796 185.872 18.5095C183.974 17.4614 181.856 16.9189 179.518 16.9189C177.429 16.9189 175.545 17.3734 173.882 18.2603C172.24 19.1471 170.906 20.415 169.887 22.0568V17.1242H166.655V51.2859H170.034V37.3895C171.06 38.9946 172.408 40.2259 174.028 41.0541C175.677 41.9043 177.495 42.3223 179.518 42.3223C181.892 42.3223 184.025 41.7944 185.901 40.7317C187.785 39.6689 189.266 38.1812 190.328 36.2463C191.42 34.3113 191.948 32.1052 191.948 29.5913C191.948 27.136 191.42 24.9298 190.328 22.9949Z" fill="white"/>
<path d="M197.041 28.1327C197.275 25.6481 198.192 23.6693 199.826 22.1228C201.446 20.591 203.476 19.8286 205.873 19.8286C208.299 19.8286 210.343 20.591 211.971 22.1228C213.598 23.6693 214.521 25.6481 214.734 28.1327H197.041ZM217.973 29.5913C217.973 27.136 217.446 24.9445 216.397 23.0389C215.364 21.1187 213.92 19.6161 212.081 18.5534C210.248 17.4613 208.167 16.9189 205.873 16.9189C203.564 16.9189 201.482 17.4613 199.621 18.5534C197.774 19.6161 196.315 21.1187 195.267 23.0536C194.205 24.9885 193.677 27.1726 193.677 29.5913C193.677 32.0319 194.234 34.2233 195.341 36.1582C196.44 38.0638 197.979 39.5884 199.965 40.6732C201.937 41.7799 204.216 42.3223 206.76 42.3223C208.768 42.3223 210.593 41.9776 212.256 41.274C213.92 40.5851 215.291 39.5737 216.397 38.2325L214.499 36.041C213.561 37.1331 212.44 37.9465 211.135 38.5036C209.83 39.0533 208.409 39.3392 206.877 39.3392C204.106 39.3392 201.827 38.5256 200.039 36.9352C198.236 35.3374 197.239 33.2485 197.041 30.6393H217.915L217.973 29.5913Z" fill="white"/>
<path d="M258.412 40.6419C257.781 41.2062 256.982 41.6387 256.059 41.9465C255.121 42.2543 254.146 42.401 253.135 42.401C250.804 42.401 248.994 41.7633 247.726 40.5027C246.465 39.2347 245.827 37.4463 245.827 35.1303V11.7427H249.191V17.2029H256.785V20.0541H249.191V34.9544C249.191 36.4349 249.573 37.571 250.313 38.3332C251.053 39.1101 252.123 39.5058 253.516 39.5058C254.219 39.5058 254.886 39.3959 255.539 39.1613C256.191 38.9488 256.748 38.6409 257.217 38.2232L258.412 40.6419Z" fill="white"/>
</svg>
